<svg width="120" height="120" viewBox="0 0 120 120" fill="none" xmlns="http://www.w3.org/2000/svg">
<path d="M69.9998 10C79.1497 9.99564 88.0245 13.1283 95.1441 18.8756C102.264 24.6229 107.198 32.6374 109.123 41.5823C111.049 50.5273 109.849 59.862 105.725 68.0297C101.601 76.1974 94.8011 82.7042 86.4598 86.465C83.7936 92.3596 79.7374 97.5194 74.6391 101.502C69.5408 105.485 63.5526 108.172 57.188 109.332C50.8234 110.492 44.2723 110.091 38.0966 108.163C31.921 106.236 26.305 102.839 21.7304 98.2644C17.1558 93.6898 13.759 88.0739 11.8314 81.8982C9.90381 75.7225 9.50292 69.1715 10.6631 62.8068C11.8233 56.4422 14.51 50.454 18.4927 45.3557C22.4754 40.2574 27.6353 36.2012 33.5298 33.535C36.7005 26.5195 41.8278 20.5675 48.2965 16.393C54.7653 12.2186 62.301 9.99881 69.9998 10ZM49.9998 40C46.0602 40 42.1591 40.776 38.5193 42.2836C34.8796 43.7913 31.5724 46.001 28.7866 48.7868C26.0009 51.5726 23.7911 54.8797 22.2834 58.5195C20.7758 62.1593 19.9998 66.0603 19.9998 70C19.9998 73.9397 20.7758 77.8407 22.2834 81.4805C23.7911 85.1203 26.0009 88.4275 28.7866 91.2132C31.5724 93.999 34.8796 96.2087 38.5193 97.7164C42.1591 99.224 46.0602 100 49.9998 100C57.9563 100 65.5869 96.8393 71.213 91.2132C76.8391 85.5871 79.9998 77.9565 79.9998 70C79.9998 62.0435 76.8391 54.4129 71.213 48.7868C65.5869 43.1607 57.9563 40 49.9998 40ZM54.9998 45V50H64.9998V60H44.9998C44.3751 59.9989 43.7726 60.2317 43.3109 60.6525C42.8492 61.0734 42.5619 61.6519 42.5054 62.2741C42.449 62.8963 42.6275 63.5171 43.0059 64.0142C43.3843 64.5113 43.9351 64.8487 44.5498 64.96L44.9998 65H54.9998C58.315 65 61.4944 66.317 63.8387 68.6612C66.1829 71.0054 67.4998 74.1848 67.4998 77.5C67.4998 80.8152 66.1829 83.9946 63.8387 86.3388C61.4944 88.683 58.315 90 54.9998 90V95H44.9998V90H34.9998V80H54.9998C55.6245 80.0012 56.2271 79.7684 56.6887 79.3475C57.1504 78.9266 57.4377 78.3481 57.4942 77.7259C57.5506 77.1037 57.3721 76.483 56.9937 75.9858C56.6153 75.4887 56.0646 75.1513 55.4498 75.04L54.9998 75H44.9998C41.6846 75 38.5052 73.683 36.161 71.3388C33.8168 68.9946 32.4998 65.8152 32.4998 62.5C32.4998 59.1848 33.8168 56.0054 36.161 53.6612C38.5052 51.317 41.6846 50 44.9998 50V45H54.9998ZM69.9998 20C65.7632 19.995 61.5739 20.8897 57.7089 22.6248C53.844 24.3599 50.3915 26.8959 47.5798 30.065C53.2311 29.7219 58.8909 30.5825 64.1849 32.5897C69.4788 34.597 74.2863 37.7052 78.2896 41.7089C82.2927 45.7126 85.4004 50.5205 87.407 55.8147C89.4137 61.1089 90.2736 66.7687 89.9298 72.42C94.4759 68.3781 97.6858 63.0497 99.1339 57.1416C100.582 51.2334 100.2 45.0246 98.038 39.3386C95.8762 33.6526 92.037 28.7582 87.0295 25.3044C82.022 21.8506 76.0829 20.0007 69.9998 20Z" fill="#E4E4E4"/>
</svg>
