<svg width="180" height="100" viewBox="0 0 180 100" fill="none" xmlns="http://www.w3.org/2000/svg">
<path d="M8.83301 54.1667H33.833V87.5H8.83301V54.1667ZM67.1663 33.3333H92.1664V87.5H67.1663V33.3333ZM37.9997 12.5H62.9997V87.5H37.9997V12.5ZM17.1663 62.5V79.1667H25.4997V62.5H17.1663ZM46.333 20.8333V79.1667H54.6663V20.8333H46.333ZM75.4997 41.6667V79.1667H83.833V41.6667H75.4997Z" fill="#1D1A27"/>
<path d="M129.5 35.4167L138.316 56.6167L161.2 58.45L143.766 73.3834L149.091 95.7167L129.5 83.75L109.908 95.7167L115.233 73.3834L97.7998 58.45L120.683 56.6167L129.5 35.4167ZM129.5 57.1125L126.421 64.5167L118.437 65.1542L124.521 70.3667L122.658 78.1625L129.5 73.9834L136.337 78.1625L134.479 70.3709L140.558 65.1542L132.579 64.5167L129.5 57.1125ZM112.833 8.33337V45.8334H104.5V8.33337H112.833ZM154.5 8.33337V45.8334H146.166V8.33337H154.5ZM133.666 8.33337V29.1667H125.333V8.33337H133.666Z" fill="#1D1A27"/>
</svg>
