<svg width="180" height="100" viewBox="0 0 180 100" fill="none" xmlns="http://www.w3.org/2000/svg">
<path d="M8.8335 54.1667H33.8335V87.5H8.8335V54.1667ZM67.1668 33.3333H92.1668V87.5H67.1668V33.3333ZM38.0002 12.5H63.0002V87.5H38.0002V12.5ZM17.1668 62.5V79.1667H25.5002V62.5H17.1668ZM46.3335 20.8333V79.1667H54.6668V20.8333H46.3335ZM75.5002 41.6667V79.1667H83.8335V41.6667H75.5002Z" fill="#E4E5FF"/>
<path d="M129.5 35.4167L138.316 56.6167L161.2 58.45L143.766 73.3834L149.091 95.7167L129.5 83.75L109.908 95.7167L115.233 73.3834L97.7998 58.45L120.683 56.6167L129.5 35.4167ZM129.5 57.1125L126.421 64.5167L118.437 65.1542L124.521 70.3667L122.658 78.1625L129.5 73.9834L136.337 78.1625L134.479 70.3709L140.558 65.1542L132.579 64.5167L129.5 57.1125ZM112.833 8.33337V45.8334H104.5V8.33337H112.833ZM154.5 8.33337V45.8334H146.166V8.33337H154.5ZM133.666 8.33337V29.1667H125.333V8.33337H133.666Z" fill="#E4E5FF"/>
</svg>
