<svg width="126" height="25" viewBox="0 0 126 25" fill="none" xmlns="http://www.w3.org/2000/svg">
<path d="M7.568 12.372C8.37867 12.372 9.08267 12.2707 9.68 12.068C10.288 11.8653 10.784 11.588 11.168 11.236C11.5627 10.8733 11.856 10.4467 12.048 9.956C12.24 9.46533 12.336 8.92667 12.336 8.34C12.336 7.16667 11.9467 6.26533 11.168 5.636C10.4 5.00667 9.22133 4.692 7.632 4.692H4.88V12.372H7.568ZM18.64 24.5H14.752C14.016 24.5 13.4827 24.212 13.152 23.636L8.288 16.228C8.10667 15.9507 7.904 15.7533 7.68 15.636C7.46667 15.5187 7.14667 15.46 6.72 15.46H4.88V24.5H0.576V1.364H7.632C9.2 1.364 10.544 1.52933 11.664 1.86C12.7947 2.18 13.7173 2.63333 14.432 3.22C15.1573 3.80667 15.6907 4.51067 16.032 5.332C16.3733 6.14267 16.544 7.03867 16.544 8.02C16.544 8.79867 16.4267 9.53467 16.192 10.228C15.968 10.9213 15.6373 11.5507 15.2 12.116C14.7733 12.6813 14.24 13.1773 13.6 13.604C12.9707 14.0307 12.2507 14.3667 11.44 14.612C11.7173 14.772 11.9733 14.964 12.208 15.188C12.4427 15.4013 12.656 15.6573 12.848 15.956L18.64 24.5ZM30.028 14.404C30.028 13.892 29.9533 13.412 29.804 12.964C29.6653 12.5053 29.452 12.1053 29.164 11.764C28.876 11.4227 28.508 11.156 28.06 10.964C27.6227 10.7613 27.1107 10.66 26.524 10.66C25.3827 10.66 24.4813 10.9853 23.82 11.636C23.1693 12.2867 22.7533 13.2093 22.572 14.404H30.028ZM22.492 16.788C22.556 17.6307 22.7053 18.3613 22.94 18.98C23.1747 19.588 23.484 20.0947 23.868 20.5C24.252 20.8947 24.7053 21.1933 25.228 21.396C25.7613 21.588 26.348 21.684 26.988 21.684C27.628 21.684 28.1773 21.6093 28.636 21.46C29.1053 21.3107 29.5107 21.1453 29.852 20.964C30.204 20.7827 30.508 20.6173 30.764 20.468C31.0307 20.3187 31.2867 20.244 31.532 20.244C31.8627 20.244 32.108 20.3667 32.268 20.612L33.404 22.052C32.9667 22.564 32.476 22.996 31.932 23.348C31.388 23.6893 30.8173 23.9667 30.22 24.18C29.6333 24.3827 29.0307 24.5267 28.412 24.612C27.804 24.6973 27.212 24.74 26.636 24.74C25.4947 24.74 24.4333 24.5533 23.452 24.18C22.4707 23.796 21.6173 23.236 20.892 22.5C20.1667 21.7533 19.596 20.836 19.18 19.748C18.764 18.6493 18.556 17.38 18.556 15.94C18.556 14.82 18.7373 13.7693 19.1 12.788C19.4627 11.796 19.98 10.9373 20.652 10.212C21.3347 9.476 22.1613 8.89467 23.132 8.468C24.1133 8.04133 25.2173 7.828 26.444 7.828C27.4787 7.828 28.4333 7.99333 29.308 8.324C30.1827 8.65467 30.9347 9.14 31.564 9.78C32.1933 10.4093 32.684 11.188 33.036 12.116C33.3987 13.0333 33.58 14.084 33.58 15.268C33.58 15.8653 33.516 16.2707 33.388 16.484C33.26 16.6867 33.0147 16.788 32.652 16.788H22.492ZM45.2178 17.492C44.0764 17.5453 43.1164 17.6467 42.3378 17.796C41.5591 17.9347 40.9351 18.116 40.4658 18.34C39.9964 18.564 39.6604 18.8253 39.4578 19.124C39.2551 19.4227 39.1538 19.748 39.1538 20.1C39.1538 20.7933 39.3564 21.2893 39.7618 21.588C40.1778 21.8867 40.7164 22.036 41.3778 22.036C42.1884 22.036 42.8871 21.892 43.4738 21.604C44.0711 21.3053 44.6524 20.8573 45.2178 20.26V17.492ZM36.1618 10.372C38.0498 8.644 40.3218 7.78 42.9778 7.78C43.9378 7.78 44.7964 7.94 45.5538 8.26C46.3111 8.56933 46.9511 9.00667 47.4738 9.572C47.9964 10.1267 48.3911 10.7933 48.6578 11.572C48.9351 12.3507 49.0738 13.204 49.0738 14.132V24.5H47.2818C46.9084 24.5 46.6204 24.4467 46.4178 24.34C46.2151 24.2227 46.0551 23.9933 45.9378 23.652L45.5858 22.468C45.1698 22.8413 44.7644 23.172 44.3698 23.46C43.9751 23.7373 43.5644 23.972 43.1378 24.164C42.7111 24.356 42.2524 24.5 41.7618 24.596C41.2818 24.7027 40.7484 24.756 40.1618 24.756C39.4684 24.756 38.8284 24.6653 38.2418 24.484C37.6551 24.292 37.1484 24.0093 36.7218 23.636C36.2951 23.2627 35.9644 22.7987 35.7298 22.244C35.4951 21.6893 35.3778 21.044 35.3778 20.308C35.3778 19.892 35.4471 19.4813 35.5858 19.076C35.7244 18.66 35.9484 18.2653 36.2578 17.892C36.5778 17.5187 36.9884 17.1667 37.4898 16.836C37.9911 16.5053 38.6044 16.2173 39.3298 15.972C40.0658 15.7267 40.9191 15.5293 41.8898 15.38C42.8604 15.22 43.9698 15.124 45.2178 15.092V14.132C45.2178 13.0333 44.9831 12.2227 44.5138 11.7C44.0444 11.1667 43.3671 10.9 42.4818 10.9C41.8418 10.9 41.3084 10.9747 40.8818 11.124C40.4658 11.2733 40.0978 11.444 39.7778 11.636C39.4578 11.8173 39.1644 11.9827 38.8978 12.132C38.6418 12.2813 38.3538 12.356 38.0338 12.356C37.7564 12.356 37.5218 12.2867 37.3298 12.148C37.1378 11.9987 36.9831 11.828 36.8658 11.636L36.1618 10.372ZM63.0998 12.276C62.6518 11.732 62.1611 11.348 61.6278 11.124C61.1051 10.9 60.5398 10.788 59.9318 10.788C59.3344 10.788 58.7958 10.9 58.3158 11.124C57.8358 11.348 57.4251 11.6893 57.0838 12.148C56.7424 12.596 56.4811 13.172 56.2998 13.876C56.1184 14.5693 56.0278 15.3907 56.0278 16.34C56.0278 17.3 56.1024 18.116 56.2518 18.788C56.4118 19.4493 56.6358 19.9933 56.9238 20.42C57.2118 20.836 57.5638 21.14 57.9798 21.332C58.3958 21.5133 58.8598 21.604 59.3718 21.604C60.1931 21.604 60.8918 21.4333 61.4678 21.092C62.0438 20.7507 62.5878 20.2653 63.0998 19.636V12.276ZM67.0518 0.723999V24.5H64.6358C64.1131 24.5 63.7824 24.26 63.6438 23.78L63.3078 22.196C62.6464 22.9533 61.8838 23.5667 61.0198 24.036C60.1664 24.5053 59.1691 24.74 58.0278 24.74C57.1318 24.74 56.3104 24.5533 55.5638 24.18C54.8171 23.8067 54.1718 23.268 53.6278 22.564C53.0944 21.8493 52.6784 20.9693 52.3798 19.924C52.0918 18.8787 51.9478 17.684 51.9478 16.34C51.9478 15.124 52.1131 13.9933 52.4438 12.948C52.7744 11.9027 53.2491 10.996 53.8678 10.228C54.4864 9.46 55.2278 8.86267 56.0918 8.436C56.9558 7.99867 57.9264 7.78 59.0038 7.78C59.9211 7.78 60.7051 7.924 61.3558 8.212C62.0064 8.5 62.5878 8.88933 63.0998 9.38V0.723999H67.0518ZM81.528 14.404C81.528 13.892 81.4533 13.412 81.304 12.964C81.1653 12.5053 80.952 12.1053 80.664 11.764C80.376 11.4227 80.008 11.156 79.56 10.964C79.1227 10.7613 78.6107 10.66 78.024 10.66C76.8827 10.66 75.9813 10.9853 75.32 11.636C74.6693 12.2867 74.2533 13.2093 74.072 14.404H81.528ZM73.992 16.788C74.056 17.6307 74.2053 18.3613 74.44 18.98C74.6747 19.588 74.984 20.0947 75.368 20.5C75.752 20.8947 76.2053 21.1933 76.728 21.396C77.2613 21.588 77.848 21.684 78.488 21.684C79.128 21.684 79.6773 21.6093 80.136 21.46C80.6053 21.3107 81.0107 21.1453 81.352 20.964C81.704 20.7827 82.008 20.6173 82.264 20.468C82.5307 20.3187 82.7867 20.244 83.032 20.244C83.3627 20.244 83.608 20.3667 83.768 20.612L84.904 22.052C84.4667 22.564 83.976 22.996 83.432 23.348C82.888 23.6893 82.3173 23.9667 81.72 24.18C81.1333 24.3827 80.5307 24.5267 79.912 24.612C79.304 24.6973 78.712 24.74 78.136 24.74C76.9947 24.74 75.9333 24.5533 74.952 24.18C73.9707 23.796 73.1173 23.236 72.392 22.5C71.6667 21.7533 71.096 20.836 70.68 19.748C70.264 18.6493 70.056 17.38 70.056 15.94C70.056 14.82 70.2373 13.7693 70.6 12.788C70.9627 11.796 71.48 10.9373 72.152 10.212C72.8347 9.476 73.6613 8.89467 74.632 8.468C75.6133 8.04133 76.7173 7.828 77.944 7.828C78.9787 7.828 79.9333 7.99333 80.808 8.324C81.6827 8.65467 82.4347 9.14 83.064 9.78C83.6933 10.4093 84.184 11.188 84.536 12.116C84.8987 13.0333 85.08 14.084 85.08 15.268C85.08 15.8653 85.016 16.2707 84.888 16.484C84.76 16.6867 84.5147 16.788 84.152 16.788H73.992ZM88.0458 24.5V8.084H90.4618C90.9738 8.084 91.3098 8.324 91.4698 8.804L91.7258 10.02C92.0138 9.7 92.3124 9.40667 92.6218 9.14C92.9418 8.87333 93.2778 8.644 93.6298 8.452C93.9924 8.26 94.3764 8.11067 94.7818 8.004C95.1978 7.88667 95.6511 7.828 96.1418 7.828C97.1764 7.828 98.0244 8.11067 98.6858 8.676C99.3578 9.23067 99.8591 9.972 100.19 10.9C100.446 10.356 100.766 9.892 101.15 9.508C101.534 9.11333 101.955 8.79333 102.414 8.548C102.872 8.30267 103.358 8.12133 103.87 8.004C104.392 7.88667 104.915 7.828 105.438 7.828C106.344 7.828 107.15 7.96667 107.854 8.244C108.558 8.52133 109.15 8.92667 109.63 9.46C110.11 9.99333 110.472 10.644 110.718 11.412C110.974 12.18 111.102 13.06 111.102 14.052V24.5H107.15V14.052C107.15 13.0067 106.92 12.2227 106.462 11.7C106.003 11.1667 105.331 10.9 104.446 10.9C104.04 10.9 103.662 10.9693 103.31 11.108C102.968 11.2467 102.664 11.4493 102.398 11.716C102.142 11.972 101.939 12.2973 101.79 12.692C101.64 13.0867 101.566 13.54 101.566 14.052V24.5H97.5978V14.052C97.5978 12.9533 97.3738 12.1533 96.9258 11.652C96.4884 11.1507 95.8431 10.9 94.9898 10.9C94.4138 10.9 93.8751 11.044 93.3738 11.332C92.8831 11.6093 92.4244 11.9933 91.9978 12.484V24.5H88.0458ZM124.874 11.284C124.768 11.4547 124.656 11.5773 124.538 11.652C124.421 11.716 124.272 11.748 124.09 11.748C123.898 11.748 123.69 11.6947 123.466 11.588C123.253 11.4813 123.002 11.364 122.714 11.236C122.426 11.0973 122.096 10.9747 121.722 10.868C121.36 10.7613 120.928 10.708 120.426 10.708C119.648 10.708 119.034 10.8733 118.586 11.204C118.149 11.5347 117.93 11.9667 117.93 12.5C117.93 12.852 118.042 13.1507 118.266 13.396C118.501 13.6307 118.805 13.8387 119.178 14.02C119.562 14.2013 119.994 14.3667 120.474 14.516C120.954 14.6547 121.44 14.8093 121.93 14.98C122.432 15.1507 122.922 15.348 123.402 15.572C123.882 15.7853 124.309 16.0627 124.682 16.404C125.066 16.7347 125.37 17.1347 125.594 17.604C125.829 18.0733 125.946 18.6387 125.946 19.3C125.946 20.0893 125.802 20.82 125.514 21.492C125.237 22.1533 124.821 22.7293 124.266 23.22C123.712 23.7 123.024 24.0787 122.202 24.356C121.392 24.6227 120.453 24.756 119.386 24.756C118.821 24.756 118.266 24.7027 117.722 24.596C117.189 24.5 116.672 24.3613 116.17 24.18C115.68 23.9987 115.221 23.7853 114.794 23.54C114.378 23.2947 114.01 23.028 113.69 22.74L114.602 21.236C114.72 21.0547 114.858 20.916 115.018 20.82C115.178 20.724 115.381 20.676 115.626 20.676C115.872 20.676 116.101 20.7453 116.314 20.884C116.538 21.0227 116.794 21.172 117.082 21.332C117.37 21.492 117.706 21.6413 118.09 21.78C118.485 21.9187 118.981 21.988 119.578 21.988C120.048 21.988 120.448 21.9347 120.778 21.828C121.12 21.7107 121.397 21.5613 121.61 21.38C121.834 21.1987 121.994 20.9907 122.09 20.756C122.197 20.5107 122.25 20.26 122.25 20.004C122.25 19.62 122.133 19.3053 121.898 19.06C121.674 18.8147 121.37 18.6013 120.986 18.42C120.613 18.2387 120.181 18.0787 119.69 17.94C119.21 17.7907 118.714 17.6307 118.202 17.46C117.701 17.2893 117.205 17.092 116.714 16.868C116.234 16.6333 115.802 16.34 115.418 15.988C115.045 15.636 114.741 15.204 114.506 14.692C114.282 14.18 114.17 13.5613 114.17 12.836C114.17 12.164 114.304 11.524 114.57 10.916C114.837 10.308 115.226 9.78 115.738 9.332C116.261 8.87333 116.906 8.51067 117.674 8.244C118.453 7.96667 119.349 7.828 120.362 7.828C121.493 7.828 122.522 8.01467 123.45 8.388C124.378 8.76133 125.152 9.252 125.77 9.86L124.874 11.284Z" fill="#0042FF"/>
</svg>
