<svg width="101" height="100" viewBox="0 0 101 100" fill="#1D1A27" xmlns="http://www.w3.org/2000/svg">
<path d="M50.5 45C57.1304 45 63.4893 47.6339 68.1777 52.3223C72.8661 57.0107 75.5 63.3696 75.5 70V100H65.5V70C65.5002 66.1739 64.0384 62.4924 61.4136 59.7087C58.7888 56.925 55.1995 55.2495 51.38 55.025L50.5 55C46.6739 54.9998 42.9924 56.4616 40.2087 59.0864C37.425 61.7112 35.7495 65.3005 35.525 69.12L35.5 70V100H25.5V70C25.5 63.3696 28.1339 57.0107 32.8223 52.3223C37.5107 47.6339 43.8696 45 50.5 45ZM18 60C19.395 60 20.75 60.165 22.05 60.47C21.1951 63.015 20.6889 65.6641 20.545 68.345L20.5 70V70.43C19.9253 70.2243 19.3275 70.09 18.72 70.03L18 70C16.1356 70.0001 14.338 70.6946 12.9579 71.9481C11.5778 73.2016 10.714 74.9242 10.535 76.78L10.5 77.5V100H0.5V77.5C0.5 72.8587 2.34374 68.4075 5.62563 65.1256C8.90752 61.8437 13.3587 60 18 60ZM83 60C87.6413 60 92.0925 61.8437 95.3744 65.1256C98.6563 68.4075 100.5 72.8587 100.5 77.5V100H90.5V77.5C90.4999 75.6356 89.8054 73.838 88.5519 72.4579C87.2984 71.0778 85.5758 70.214 83.72 70.035L83 70C82.125 70 81.285 70.15 80.5 70.425V70C80.5 66.67 79.96 63.47 78.955 60.48C80.25 60.165 81.605 60 83 60ZM18 30C21.3152 30 24.4946 31.317 26.8388 33.6612C29.183 36.0054 30.5 39.1848 30.5 42.5C30.5 45.8152 29.183 48.9946 26.8388 51.3388C24.4946 53.683 21.3152 55 18 55C14.6848 55 11.5054 53.683 9.16117 51.3388C6.81696 48.9946 5.5 45.8152 5.5 42.5C5.5 39.1848 6.81696 36.0054 9.16117 33.6612C11.5054 31.317 14.6848 30 18 30ZM83 30C86.3152 30 89.4946 31.317 91.8388 33.6612C94.183 36.0054 95.5 39.1848 95.5 42.5C95.5 45.8152 94.183 48.9946 91.8388 51.3388C89.4946 53.683 86.3152 55 83 55C79.6848 55 76.5054 53.683 74.1612 51.3388C71.817 48.9946 70.5 45.8152 70.5 42.5C70.5 39.1848 71.817 36.0054 74.1612 33.6612C76.5054 31.317 79.6848 30 83 30ZM18 40C17.337 40 16.7011 40.2634 16.2322 40.7322C15.7634 41.2011 15.5 41.837 15.5 42.5C15.5 43.163 15.7634 43.7989 16.2322 44.2678C16.7011 44.7366 17.337 45 18 45C18.663 45 19.2989 44.7366 19.7678 44.2678C20.2366 43.7989 20.5 43.163 20.5 42.5C20.5 41.837 20.2366 41.2011 19.7678 40.7322C19.2989 40.2634 18.663 40 18 40ZM83 40C82.337 40 81.7011 40.2634 81.2322 40.7322C80.7634 41.2011 80.5 41.837 80.5 42.5C80.5 43.163 80.7634 43.7989 81.2322 44.2678C81.7011 44.7366 82.337 45 83 45C83.663 45 84.2989 44.7366 84.7678 44.2678C85.2366 43.7989 85.5 43.163 85.5 42.5C85.5 41.837 85.2366 41.2011 84.7678 40.7322C84.2989 40.2634 83.663 40 83 40ZM50.5 0C55.8043 0 60.8914 2.10714 64.6421 5.85786C68.3929 9.60859 70.5 14.6957 70.5 20C70.5 25.3043 68.3929 30.3914 64.6421 34.1421C60.8914 37.8929 55.8043 40 50.5 40C45.1957 40 40.1086 37.8929 36.3579 34.1421C32.6071 30.3914 30.5 25.3043 30.5 20C30.5 14.6957 32.6071 9.60859 36.3579 5.85786C40.1086 2.10714 45.1957 0 50.5 0ZM50.5 10C47.8478 10 45.3043 11.0536 43.4289 12.9289C41.5536 14.8043 40.5 17.3478 40.5 20C40.5 22.6522 41.5536 25.1957 43.4289 27.0711C45.3043 28.9464 47.8478 30 50.5 30C53.1522 30 55.6957 28.9464 57.5711 27.0711C59.4464 25.1957 60.5 22.6522 60.5 20C60.5 17.3478 59.4464 14.8043 57.5711 12.9289C55.6957 11.0536 53.1522 10 50.5 10Z" fill="#1D1A27"/>
</svg>
