<svg width="121" height="120" viewBox="0 0 121 120" fill="none" xmlns="http://www.w3.org/2000/svg">
<path d="M60.5 55C67.1304 55 73.4893 57.6339 78.1777 62.3223C82.8661 67.0107 85.5 73.3696 85.5 80V110H75.5V80C75.5002 76.1739 74.0384 72.4924 71.4136 69.7087C68.7888 66.925 65.1995 65.2495 61.38 65.025L60.5 65C56.6739 64.9998 52.9924 66.4616 50.2087 69.0864C47.425 71.7112 45.7495 75.3005 45.525 79.12L45.5 80V110H35.5V80C35.5 73.3696 38.1339 67.0107 42.8223 62.3223C47.5107 57.6339 53.8696 55 60.5 55ZM28 70C29.395 70 30.75 70.165 32.05 70.47C31.1951 73.015 30.6889 75.6641 30.545 78.345L30.5 80V80.43C29.9253 80.2243 29.3275 80.09 28.72 80.03L28 80C26.1356 80.0001 24.338 80.6946 22.9579 81.9481C21.5778 83.2016 20.714 84.9242 20.535 86.78L20.5 87.5V110H10.5V87.5C10.5 82.8587 12.3437 78.4075 15.6256 75.1256C18.9075 71.8437 23.3587 70 28 70ZM93 70C97.6413 70 102.092 71.8437 105.374 75.1256C108.656 78.4075 110.5 82.8587 110.5 87.5V110H100.5V87.5C100.5 85.6356 99.8054 83.838 98.5519 82.4579C97.2984 81.0778 95.5758 80.214 93.72 80.035L93 80C92.125 80 91.285 80.15 90.5 80.425V80C90.5 76.67 89.96 73.47 88.955 70.48C90.25 70.165 91.605 70 93 70ZM28 40C31.3152 40 34.4946 41.317 36.8388 43.6612C39.183 46.0054 40.5 49.1848 40.5 52.5C40.5 55.8152 39.183 58.9946 36.8388 61.3388C34.4946 63.683 31.3152 65 28 65C24.6848 65 21.5054 63.683 19.1612 61.3388C16.817 58.9946 15.5 55.8152 15.5 52.5C15.5 49.1848 16.817 46.0054 19.1612 43.6612C21.5054 41.317 24.6848 40 28 40ZM93 40C96.3152 40 99.4946 41.317 101.839 43.6612C104.183 46.0054 105.5 49.1848 105.5 52.5C105.5 55.8152 104.183 58.9946 101.839 61.3388C99.4946 63.683 96.3152 65 93 65C89.6848 65 86.5054 63.683 84.1612 61.3388C81.817 58.9946 80.5 55.8152 80.5 52.5C80.5 49.1848 81.817 46.0054 84.1612 43.6612C86.5054 41.317 89.6848 40 93 40ZM28 50C27.337 50 26.7011 50.2634 26.2322 50.7322C25.7634 51.2011 25.5 51.837 25.5 52.5C25.5 53.163 25.7634 53.7989 26.2322 54.2678C26.7011 54.7366 27.337 55 28 55C28.663 55 29.2989 54.7366 29.7678 54.2678C30.2366 53.7989 30.5 53.163 30.5 52.5C30.5 51.837 30.2366 51.2011 29.7678 50.7322C29.2989 50.2634 28.663 50 28 50ZM93 50C92.337 50 91.7011 50.2634 91.2322 50.7322C90.7634 51.2011 90.5 51.837 90.5 52.5C90.5 53.163 90.7634 53.7989 91.2322 54.2678C91.7011 54.7366 92.337 55 93 55C93.663 55 94.2989 54.7366 94.7678 54.2678C95.2366 53.7989 95.5 53.163 95.5 52.5C95.5 51.837 95.2366 51.2011 94.7678 50.7322C94.2989 50.2634 93.663 50 93 50ZM60.5 10C65.8043 10 70.8914 12.1071 74.6421 15.8579C78.3929 19.6086 80.5 24.6957 80.5 30C80.5 35.3043 78.3929 40.3914 74.6421 44.1421C70.8914 47.8929 65.8043 50 60.5 50C55.1957 50 50.1086 47.8929 46.3579 44.1421C42.6071 40.3914 40.5 35.3043 40.5 30C40.5 24.6957 42.6071 19.6086 46.3579 15.8579C50.1086 12.1071 55.1957 10 60.5 10ZM60.5 20C57.8478 20 55.3043 21.0536 53.4289 22.9289C51.5536 24.8043 50.5 27.3478 50.5 30C50.5 32.6522 51.5536 35.1957 53.4289 37.0711C55.3043 38.9464 57.8478 40 60.5 40C63.1522 40 65.6957 38.9464 67.5711 37.0711C69.4464 35.1957 70.5 32.6522 70.5 30C70.5 27.3478 69.4464 24.8043 67.5711 22.9289C65.6957 21.0536 63.1522 20 60.5 20Z" fill="black"/>
</svg>
