<svg width="25" height="32" viewBox="0 0 25 32" fill="none" xmlns="http://www.w3.org/2000/svg">
<path d="M24.1663 31.0833H0.833008V28.1666C0.833008 26.2327 1.60123 24.3781 2.96869 23.0106C4.33614 21.6431 6.1908 20.8749 8.12467 20.8749H16.8747C18.8085 20.8749 20.6632 21.6431 22.0307 23.0106C23.3981 24.3781 24.1663 26.2327 24.1663 28.1666V31.0833ZM12.4997 17.9583C11.3506 17.9583 10.2128 17.7319 9.15119 17.2922C8.0896 16.8525 7.125 16.2079 6.31249 15.3954C5.49998 14.5829 4.85546 13.6183 4.41573 12.5567C3.976 11.4951 3.74967 10.3573 3.74967 9.20825C3.74967 8.05919 3.976 6.92137 4.41573 5.85977C4.85546 4.79817 5.49998 3.83358 6.31249 3.02107C7.125 2.20855 8.0896 1.56403 9.15119 1.12431C10.2128 0.684577 11.3506 0.458252 12.4997 0.458252C14.8203 0.458252 17.0459 1.38012 18.6869 3.02107C20.3278 4.66201 21.2497 6.88761 21.2497 9.20825C21.2497 11.5289 20.3278 13.7545 18.6869 15.3954C17.0459 17.0364 14.8203 17.9583 12.4997 17.9583Z" fill="#003BE4"/>
</svg>
